0
SECTION
2
HEADER
9
$ACADVER
1
AC1015
9
$DWGCODEPAGE
3
ANSI_1251
9
$LASTSAVEDBY
1
НК-Контроль
0
ENDSEC
0
SECTION
2
TABLES
0
TABLE
2
LAYER
70
3
0
LAYER
2
0
70
0
62
7
6
CONTINUOUS
0
LAYER
2
STAMP
70
0
62
7
6
CONTINUOUS
0
LAYER
2
TEXT
70
0
62
3
6
CONTINUOUS
0
ENDTAB
0
ENDSEC
0
SECTION
2
BLOCKS
0
BLOCK
8
STAMP
2
TITLE_BLOCK
70
0
10
0
20
0
30
0
0
ATTDEF
8
STAMP
10
10
20
10
30
0
40
3.5
1
СВ.906789.003
3
Обозначение
2
DESIGNATION
70
0
0
ATTDEF
8
STAMP
10
100
20
20
30
0
40
3.5
1
Клюз
3
Наименование
2
NAME
70
0
0
ATTDEF
8
STAMP
10
100
20
15
30
0
40
3.5
1
1:5
3
Масштаб
2
SCALE
70
0
0
ATTDEF
8
STAMP
10
150
20
15
30
0
40
3.5
1
20.7 кг
3
Масса
2
MASS
70
0
0
ATTDEF
8
STAMP
10
100
20
10
30
0
40
3.5
1
Сталь 09Г2С ГОСТ 19281-2014
3
Материал
2
MATERIAL
70
0
0
ATTDEF
8
STAMP
10
200
20
20
30
0
40
3.5
1

3
Литера
2
LETTER
70
0
0
ATTDEF
8
STAMP
10
200
20
15
30
0
40
3.5
1
РД
3
Стадия
2
STAGE
70
0
0
ATTDEF
8
STAMP
10
50
20
40
30
0
40
3.5
1
Сидоров С.С.
3
Разработал
2
DEVELOPED
70
0
0
ATTDEF
8
STAMP
10
50
20
35
30
0
40
3.5
1
Кузнецов К.К.
3
Проверил
2
CHECKED
70
0
0
ATTDEF
8
STAMP
10
50
20
30
30
0
40
3.5
1
Николаев Н.Н.
3
Н.контр.
2
NORMCONTROL
70
0
0
ATTDEF
8
STAMP
10
50
20
25
30
0
40
3.5
1
Директоров Д.Д.
3
Утвердил
2
APPROVED
70
0
0
ATTDEF
8
STAMP
10
200
20
10
30
0
40
3.5
1
A3
3
Формат
2
FORMAT
70
0
0
ENDBLK
8
STAMP
0
ENDSEC
0
SECTION
2
ENTITIES
0
LINE
8
0
10
20
20
5
11
407
21
5
0
LINE
8
0
10
20
20
5
11
20
21
292
0
LINE
8
0
10
20
20
292
11
407
21
292
0
LINE
8
0
10
407
20
5
11
407
21
292
0
INSERT
8
STAMP
2
TITLE_BLOCK
10
180
20
20
30
0
0
TEXT
8
TEXT
10
30
20
150
40
5
1
Технические требования
0
TEXT
8
TEXT
10
30
20
143
40
3.5
1
1. Неуказанные предельные отклонения H14, h14, ±IT14/2.
0
TEXT
8
TEXT
10
30
20
138
40
3.5
1
2. Острые кромки притупить R0,5...1,0 мм.
0
TEXT
8
TEXT
10
250
20
150
40
4
1
Перечень примененных стандартов:
0
TEXT
8
TEXT
10
250
20
144
40
3.5
1
- ГОСТ 2.307-2011
0
TEXT
8
TEXT
10
250
20
139
40
3.5
1
- ГОСТ 2.309-73
0
TEXT
8
TEXT
10
250
20
134
40
3.5
1
- ГОСТ 2.316-2008
0
TEXT
8
TEXT
10
250
20
129
40
3.5
1
- ГОСТ 19281-2014
0
ENDSEC
0
EOF